<mxfile host="app.diagrams.net" modified="2021-03-18T15:27:22.978Z" agent="5.0 (X11; Linux x86_64) AppleWebKit/537.36 (KHTML, like Gecko) Chrome/87.0.4280.141 Safari/537.36" etag="oGeeN7wr-krQTpT8HSuv" version="14.4.9" type="github">
  <diagram id="zfjl75SE2xE2Baz_tYvl" name="Page-1">
    <mxGraphModel dx="1422" dy="806" grid="1" gridSize="10" guides="1" tooltips="1" connect="1" arrows="1" fold="1" page="1" pageScale="1" pageWidth="2000" pageHeight="2000" math="0" shadow="0">
      <root>
        <mxCell id="0" />
        <mxCell id="1" parent="0" />
        <mxCell id="Hq7Z3gzfRX-pimA4vsyu-4" value="" style="edgeStyle=orthogonalEdgeStyle;rounded=0;orthogonalLoop=1;jettySize=auto;html=1;" parent="1" source="Hq7Z3gzfRX-pimA4vsyu-1" target="Hq7Z3gzfRX-pimA4vsyu-3" edge="1">
          <mxGeometry relative="1" as="geometry" />
        </mxCell>
        <mxCell id="Hq7Z3gzfRX-pimA4vsyu-1" value="/Profiles" style="rounded=0;whiteSpace=wrap;html=1;" parent="1" vertex="1">
          <mxGeometry x="260.06" y="40" width="120" height="80" as="geometry" />
        </mxCell>
        <mxCell id="Hq7Z3gzfRX-pimA4vsyu-11" value="" style="edgeStyle=orthogonalEdgeStyle;rounded=0;orthogonalLoop=1;jettySize=auto;html=1;" parent="1" source="Hq7Z3gzfRX-pimA4vsyu-2" target="Hq7Z3gzfRX-pimA4vsyu-12" edge="1">
          <mxGeometry relative="1" as="geometry">
            <mxPoint x="320.06" y="480" as="targetPoint" />
          </mxGeometry>
        </mxCell>
        <mxCell id="Hq7Z3gzfRX-pimA4vsyu-2" value="/Profiles/Profile/?" style="rounded=0;whiteSpace=wrap;html=1;" parent="1" vertex="1">
          <mxGeometry x="260.06" y="320" width="120" height="80" as="geometry" />
        </mxCell>
        <mxCell id="Hq7Z3gzfRX-pimA4vsyu-7" value="ja" style="edgeStyle=orthogonalEdgeStyle;rounded=0;orthogonalLoop=1;jettySize=auto;html=1;dashed=1;" parent="1" source="Hq7Z3gzfRX-pimA4vsyu-3" target="Hq7Z3gzfRX-pimA4vsyu-2" edge="1">
          <mxGeometry relative="1" as="geometry" />
        </mxCell>
        <mxCell id="Hq7Z3gzfRX-pimA4vsyu-9" value="nej" style="edgeStyle=orthogonalEdgeStyle;rounded=0;orthogonalLoop=1;jettySize=auto;html=1;dashed=1;" parent="1" source="Hq7Z3gzfRX-pimA4vsyu-3" target="Hq7Z3gzfRX-pimA4vsyu-8" edge="1">
          <mxGeometry relative="1" as="geometry" />
        </mxCell>
        <mxCell id="Hq7Z3gzfRX-pimA4vsyu-3" value="är en användare&lt;br&gt;inloggad?" style="rhombus;whiteSpace=wrap;html=1;rounded=0;" parent="1" vertex="1">
          <mxGeometry x="250.06" y="180" width="140" height="80" as="geometry" />
        </mxCell>
        <mxCell id="Hq7Z3gzfRX-pimA4vsyu-8" value="/" style="whiteSpace=wrap;html=1;rounded=0;" parent="1" vertex="1">
          <mxGeometry x="80.06" y="180" width="120" height="80" as="geometry" />
        </mxCell>
        <mxCell id="Hq7Z3gzfRX-pimA4vsyu-14" value="nej" style="edgeStyle=orthogonalEdgeStyle;rounded=0;orthogonalLoop=1;jettySize=auto;html=1;" parent="1" source="Hq7Z3gzfRX-pimA4vsyu-12" target="Hq7Z3gzfRX-pimA4vsyu-15" edge="1">
          <mxGeometry relative="1" as="geometry">
            <mxPoint x="440.06" y="500" as="targetPoint" />
          </mxGeometry>
        </mxCell>
        <mxCell id="Hq7Z3gzfRX-pimA4vsyu-21" value="ja" style="edgeStyle=orthogonalEdgeStyle;rounded=0;orthogonalLoop=1;jettySize=auto;html=1;" parent="1" source="Hq7Z3gzfRX-pimA4vsyu-12" target="Hq7Z3gzfRX-pimA4vsyu-22" edge="1">
          <mxGeometry relative="1" as="geometry">
            <mxPoint x="320.06" y="580" as="targetPoint" />
          </mxGeometry>
        </mxCell>
        <mxCell id="Hq7Z3gzfRX-pimA4vsyu-12" value="är en profil URL&lt;br&gt;specificerad?" style="rhombus;whiteSpace=wrap;html=1;rounded=0;" parent="1" vertex="1">
          <mxGeometry x="250.06" y="460" width="140" height="80" as="geometry" />
        </mxCell>
        <mxCell id="Hq7Z3gzfRX-pimA4vsyu-17" value="nej" style="edgeStyle=orthogonalEdgeStyle;rounded=0;orthogonalLoop=1;jettySize=auto;html=1;entryX=0;entryY=0.5;entryDx=0;entryDy=0;dashed=1;" parent="1" source="Hq7Z3gzfRX-pimA4vsyu-15" target="Hq7Z3gzfRX-pimA4vsyu-8" edge="1">
          <mxGeometry relative="1" as="geometry">
            <mxPoint x="620.06" y="500" as="targetPoint" />
            <Array as="points">
              <mxPoint x="40.06" y="500" />
              <mxPoint x="40.06" y="220" />
            </Array>
          </mxGeometry>
        </mxCell>
        <mxCell id="Hq7Z3gzfRX-pimA4vsyu-19" value="ja" style="edgeStyle=orthogonalEdgeStyle;rounded=0;orthogonalLoop=1;jettySize=auto;html=1;entryX=0;entryY=0.5;entryDx=0;entryDy=0;dashed=1;" parent="1" source="Hq7Z3gzfRX-pimA4vsyu-15" target="Hq7Z3gzfRX-pimA4vsyu-2" edge="1">
          <mxGeometry relative="1" as="geometry">
            <mxPoint x="340.06" y="360" as="targetPoint" />
            <Array as="points">
              <mxPoint x="140.06" y="360" />
            </Array>
          </mxGeometry>
        </mxCell>
        <mxCell id="Hq7Z3gzfRX-pimA4vsyu-15" value="är användaren&lt;br&gt;inloggad?" style="rhombus;whiteSpace=wrap;html=1;rounded=0;" parent="1" vertex="1">
          <mxGeometry x="70.06" y="460" width="140" height="80" as="geometry" />
        </mxCell>
        <mxCell id="Hq7Z3gzfRX-pimA4vsyu-24" value="ja" style="edgeStyle=orthogonalEdgeStyle;rounded=0;orthogonalLoop=1;jettySize=auto;html=1;" parent="1" source="Hq7Z3gzfRX-pimA4vsyu-22" target="Hq7Z3gzfRX-pimA4vsyu-23" edge="1">
          <mxGeometry relative="1" as="geometry" />
        </mxCell>
        <mxCell id="Hq7Z3gzfRX-pimA4vsyu-30" value="nej" style="edgeStyle=orthogonalEdgeStyle;rounded=0;orthogonalLoop=1;jettySize=auto;html=1;" parent="1" source="Hq7Z3gzfRX-pimA4vsyu-22" target="Hq7Z3gzfRX-pimA4vsyu-29" edge="1">
          <mxGeometry relative="1" as="geometry" />
        </mxCell>
        <mxCell id="Hq7Z3gzfRX-pimA4vsyu-22" value="är användaren&lt;br&gt;inloggad?" style="rhombus;whiteSpace=wrap;html=1;rounded=0;" parent="1" vertex="1">
          <mxGeometry x="250.06" y="600" width="140" height="80" as="geometry" />
        </mxCell>
        <mxCell id="Hq7Z3gzfRX-pimA4vsyu-28" value="ja" style="edgeStyle=orthogonalEdgeStyle;rounded=0;orthogonalLoop=1;jettySize=auto;html=1;" parent="1" source="Hq7Z3gzfRX-pimA4vsyu-23" target="Hq7Z3gzfRX-pimA4vsyu-27" edge="1">
          <mxGeometry relative="1" as="geometry" />
        </mxCell>
        <mxCell id="Hq7Z3gzfRX-pimA4vsyu-31" value="nej" style="edgeStyle=orthogonalEdgeStyle;rounded=0;orthogonalLoop=1;jettySize=auto;html=1;entryX=1;entryY=0.25;entryDx=0;entryDy=0;" parent="1" source="Hq7Z3gzfRX-pimA4vsyu-23" target="Hq7Z3gzfRX-pimA4vsyu-29" edge="1">
          <mxGeometry relative="1" as="geometry">
            <Array as="points">
              <mxPoint x="500.06" y="760" />
            </Array>
          </mxGeometry>
        </mxCell>
        <mxCell id="Hq7Z3gzfRX-pimA4vsyu-23" value="användarens profil?" style="rhombus;whiteSpace=wrap;html=1;rounded=0;" parent="1" vertex="1">
          <mxGeometry x="430.06" y="600" width="140" height="80" as="geometry" />
        </mxCell>
        <mxCell id="Hq7Z3gzfRX-pimA4vsyu-32" value="ja" style="edgeStyle=orthogonalEdgeStyle;rounded=0;orthogonalLoop=1;jettySize=auto;html=1;entryX=1;entryY=0.75;entryDx=0;entryDy=0;" parent="1" source="Hq7Z3gzfRX-pimA4vsyu-27" target="Hq7Z3gzfRX-pimA4vsyu-29" edge="1">
          <mxGeometry relative="1" as="geometry">
            <mxPoint x="580.06" y="750" as="targetPoint" />
            <Array as="points">
              <mxPoint x="690.06" y="800" />
            </Array>
          </mxGeometry>
        </mxCell>
        <mxCell id="Hq7Z3gzfRX-pimA4vsyu-36" value="" style="edgeStyle=orthogonalEdgeStyle;rounded=0;orthogonalLoop=1;jettySize=auto;html=1;" parent="1" source="Hq7Z3gzfRX-pimA4vsyu-27" target="Hq7Z3gzfRX-pimA4vsyu-35" edge="1">
          <mxGeometry relative="1" as="geometry" />
        </mxCell>
        <mxCell id="Hq7Z3gzfRX-pimA4vsyu-27" value="användarens&lt;br&gt;profil finns?" style="rhombus;whiteSpace=wrap;html=1;rounded=0;" parent="1" vertex="1">
          <mxGeometry x="610.06" y="600" width="140" height="80" as="geometry" />
        </mxCell>
        <mxCell id="Hq7Z3gzfRX-pimA4vsyu-29" value="Visa profilen" style="whiteSpace=wrap;html=1;rounded=0;" parent="1" vertex="1">
          <mxGeometry x="260.06" y="740" width="120" height="80" as="geometry" />
        </mxCell>
        <mxCell id="Hq7Z3gzfRX-pimA4vsyu-40" value="" style="edgeStyle=orthogonalEdgeStyle;rounded=0;orthogonalLoop=1;jettySize=auto;html=1;" parent="1" source="Hq7Z3gzfRX-pimA4vsyu-35" target="Hq7Z3gzfRX-pimA4vsyu-39" edge="1">
          <mxGeometry relative="1" as="geometry" />
        </mxCell>
        <mxCell id="Hq7Z3gzfRX-pimA4vsyu-35" value="POST?" style="rhombus;whiteSpace=wrap;html=1;rounded=0;" parent="1" vertex="1">
          <mxGeometry x="610.06" y="460" width="140" height="80" as="geometry" />
        </mxCell>
        <mxCell id="Hq7Z3gzfRX-pimA4vsyu-41" value="ja" style="edgeStyle=orthogonalEdgeStyle;rounded=0;orthogonalLoop=1;jettySize=auto;html=1;entryX=1;entryY=0.5;entryDx=0;entryDy=0;" parent="1" source="Hq7Z3gzfRX-pimA4vsyu-39" target="Hq7Z3gzfRX-pimA4vsyu-2" edge="1">
          <mxGeometry relative="1" as="geometry">
            <mxPoint x="390.06" y="360" as="targetPoint" />
          </mxGeometry>
        </mxCell>
        <mxCell id="Hq7Z3gzfRX-pimA4vsyu-43" value="nej" style="edgeStyle=orthogonalEdgeStyle;rounded=0;orthogonalLoop=1;jettySize=auto;html=1;" parent="1" source="Hq7Z3gzfRX-pimA4vsyu-39" target="Hq7Z3gzfRX-pimA4vsyu-42" edge="1">
          <mxGeometry relative="1" as="geometry" />
        </mxCell>
        <mxCell id="Hq7Z3gzfRX-pimA4vsyu-39" value="profil formet&lt;br&gt;validerar?" style="rhombus;whiteSpace=wrap;html=1;rounded=0;" parent="1" vertex="1">
          <mxGeometry x="610.06" y="320" width="140" height="80" as="geometry" />
        </mxCell>
        <mxCell id="Hq7Z3gzfRX-pimA4vsyu-42" value="visa form för&lt;br&gt;profil skapande" style="whiteSpace=wrap;html=1;rounded=0;" parent="1" vertex="1">
          <mxGeometry x="620.06" y="180" width="120" height="80" as="geometry" />
        </mxCell>
      </root>
    </mxGraphModel>
  </diagram>
</mxfile>
